<svg viewBox="90.81 134.59 28.46 28.46" xmlns="http://www.w3.org/2000/svg">
  <circle cx="105.03958" cy="148.81917" r="13.229166" fill="#ffffff" stroke="#000000" stroke-width="0.529167"/>
  <ellipse cx="101.07083" cy="148.86752" rx="2.54" ry="3.81" fill="#000000"/>
  <ellipse cx="109.00833" cy="148.86752" rx="2.54" ry="3.81" fill="#000000"/>
  <circle cx="101.27" cy="149.62" r="0.9525" fill="#ffffff"/>
  <circle cx="108.81" cy="149.62" r="0.9525" fill="#ffffff"/>
  <ellipse cx="105.03958" cy="154.20735" rx="1.58750" ry="0.9525" fill="#000000"/>
  <path d="m 101.86458,156.45297 q 3.17500,3.17500 6.35000,0" stroke="#000000" stroke-width="0.635" fill="none"/>
  <path d="m 95.614815,139.32567 a 5,5 0 0 0 0.276293,7.06597 l 1.369024,-1.48043 a 3,3 0 0 1 -0.148957,-0.11522 3,3 0 0 1 -0.165758,-4.23915 3,3 0 0 1 4.239493,-0.16614 3,3 0 0 1 0.12653,0.13948 l 1.36902,-1.48043 a 5,5 0 0 0 -7.065624,0.2759 z" fill="#000000"/>
  <path d="m 114.47704,139.19845 a 5,5 0 0 1 -0.27629,7.06597 l -1.36903,-1.48043 a 3,3 0 0 0 0.14896,-0.11522 3,3 0 0 0 0.16576,-4.23915 3,3 0 0 0 -4.2395,-0.16614 3,3 0 0 0 -0.12653,0.13948 l -1.36902,-1.48043 a 5,5 0 0 1 7.06563,0.2759 z" fill="#000000"/>
</svg>